# xmcd
#
# Track frame offsets:
#	150
#	12134
#	25794
#	40408
#	52507
#	64766
#	78679
#	91551
#	104926
#	116961
#	130451
#	143751
#	156457
#	167762
#	178378
#	189536
#	201143
#	213545
#	225995
#	238501
#	252837
#	266751
#	279599
#	293243
#	306625
#	318713
#	332059
#
# Disc length: 4603 seconds
#
# Revision: 1
# Processed by: cddbd v1.4PL0 Copyright (c) Steve Scherf et al.
# Submitted via: CDmax 2.0
#
DISCID=9a11f91b
DTITLE=The Carter Family - Volume 2, Disc 4, NYC, Charlotte NC, Chicago, 1937
DTITLE=1940
DYEAR=2003
DGENRE=Country
TTITLE0=Goodbye To The Plains
TTITLE1=My Home's Across The Blue Ridge Mountains
TTITLE2=Dark Haired True Lover
TTITLE3=He Never Came Back
TTITLE4=Happy In The Prison
TTITLE5=Walking In The King's Highway
TTITLE6=St. Regious Girl
TTITLE7=Just A Few More Days
TTITLE8=Bring Back My Boy
TTITLE9=It Is Better Farther On
TTITLE10=Charlie And Nellie
TTITLE11=Cuban Soldier
TTITLE12=Heart That Was Broken For Me, The
TTITLE13=You're Nothing More To Me
TTITLE14=Stern Old Bachelor
TTITLE15=Little Joe
TTITLE16=Reckless Motorman
TTITLE17=You Denied Your Love
TTITLE18=Oh Take Me Back
TTITLE19=You Are My Flower
TTITLE20=Who's That Knocking At My Window
TTITLE21=They Call Her Mother
TTITLE22=Coal Miner's Blues
TTITLE23=Young Freda Bolt
TTITLE24=Little Poplar Log House On The Hill
TTITLE25=Dying Mother, The
TTITLE26=Buddies In The Saddle
EXTD=
EXTT0=
EXTT1=
EXTT2=
EXTT3=
EXTT4=
EXTT5=
EXTT6=
EXTT7=
EXTT8=
EXTT9=
EXTT10=
EXTT11=
EXTT12=
EXTT13=
EXTT14=
EXTT15=
EXTT16=
EXTT17=
EXTT18=
EXTT19=
EXTT20=
EXTT21=
EXTT22=
EXTT23=
EXTT24=
EXTT25=
EXTT26=
PLAYORDER=
